<svg height="26" version="1.1" width="218" xmlns="http://www.w3.org/2000/svg" style="overflow: hidden; position: relative;"><desc style="-webkit-tap-highlight-color: rgba(0, 0, 0, 0);">Created with Raphaël 2.1.0</desc><defs style="-webkit-tap-highlight-color: rgba(0, 0, 0, 0);"/><rect x="0" y="0" width="218" height="26" r="0" rx="0" ry="0" fill="#000000" stroke="none" style="-webkit-tap-highlight-color: rgba(0, 0, 0, 0);"/><rect x="10" y="18" width="6" height="6" r="0" rx="0" ry="0" fill="#ffffff" stroke="#000" stroke-width="0" style="-webkit-tap-highlight-color: rgba(0, 0, 0, 0);"/><rect x="34" y="2" width="6" height="14" r="0" rx="0" ry="0" fill="#ffffff" stroke="#000" stroke-width="0" style="-webkit-tap-highlight-color: rgba(0, 0, 0, 0);"/><rect x="50" y="10" width="6" height="14" r="0" rx="0" ry="0" fill="#ffffff" stroke="#000" stroke-width="0" style="-webkit-tap-highlight-color: rgba(0, 0, 0, 0);"/><rect x="66" y="10" width="6" height="14" r="0" rx="0" ry="0" fill="#ffffff" stroke="#000" stroke-width="0" style="-webkit-tap-highlight-color: rgba(0, 0, 0, 0);"/><rect x="82" y="10" width="6" height="6" r="0" rx="0" ry="0" fill="#ffffff" stroke="#000" stroke-width="0" style="-webkit-tap-highlight-color: rgba(0, 0, 0, 0);"/><rect x="106" y="18" width="6" height="6" r="0" rx="0" ry="0" fill="#ffffff" stroke="#000" stroke-width="0" style="-webkit-tap-highlight-color: rgba(0, 0, 0, 0);"/><rect x="130" y="18" width="6" height="6" r="0" rx="0" ry="0" fill="#ffffff" stroke="#000" stroke-width="0" style="-webkit-tap-highlight-color: rgba(0, 0, 0, 0);"/><rect x="146" y="10" width="6" height="14" r="0" rx="0" ry="0" fill="#ffffff" stroke="#000" stroke-width="0" style="-webkit-tap-highlight-color: rgba(0, 0, 0, 0);"/><rect x="162" y="10" width="6" height="14" r="0" rx="0" ry="0" fill="#ffffff" stroke="#000" stroke-width="0" style="-webkit-tap-highlight-color: rgba(0, 0, 0, 0);"/><rect x="2" y="2" width="22" height="6" r="0" rx="0" ry="0" fill="#ff0055" stroke="#000" stroke-width="0" style="-webkit-tap-highlight-color: rgba(0, 0, 0, 0);"/><rect x="2" y="2" width="6" height="22" r="0" rx="0" ry="0" fill="#ff0055" stroke="#000" stroke-width="0" style="-webkit-tap-highlight-color: rgba(0, 0, 0, 0);"/><rect x="18" y="2" width="6" height="22" r="0" rx="0" ry="0" fill="#ff0055" stroke="#000" stroke-width="0" style="-webkit-tap-highlight-color: rgba(0, 0, 0, 0);"/><rect x="2" y="10" width="22" height="6" r="0" rx="0" ry="0" fill="#ff0055" stroke="#000" stroke-width="0" style="-webkit-tap-highlight-color: rgba(0, 0, 0, 0);"/><rect x="10" y="18" width="6" height="6" r="0" rx="0" ry="0" fill="#ff0055" stroke="#000" stroke-width="0" style="-webkit-tap-highlight-color: rgba(0, 0, 0, 0);"/><rect x="26" y="2" width="6" height="22" r="0" rx="0" ry="0" fill="#00aaff" stroke="#000" stroke-width="0" style="-webkit-tap-highlight-color: rgba(0, 0, 0, 0);"/><rect x="42" y="2" width="6" height="22" r="0" rx="0" ry="0" fill="#00aaff" stroke="#000" stroke-width="0" style="-webkit-tap-highlight-color: rgba(0, 0, 0, 0);"/><rect x="26" y="18" width="22" height="6" r="0" rx="0" ry="0" fill="#00aaff" stroke="#000" stroke-width="0" style="-webkit-tap-highlight-color: rgba(0, 0, 0, 0);"/><rect x="34" y="2" width="6" height="14" r="0" rx="0" ry="0" fill="#00aaff" stroke="#000" stroke-width="0" style="-webkit-tap-highlight-color: rgba(0, 0, 0, 0);"/><rect x="50" y="2" width="22" height="6" r="0" rx="0" ry="0" fill="#ffff00" stroke="#000" stroke-width="0" style="-webkit-tap-highlight-color: rgba(0, 0, 0, 0);"/><rect x="58" y="2" width="6" height="22" r="0" rx="0" ry="0" fill="#ffff00" stroke="#000" stroke-width="0" style="-webkit-tap-highlight-color: rgba(0, 0, 0, 0);"/><rect x="50" y="10" width="6" height="14" r="0" rx="0" ry="0" fill="#ffff00" stroke="#000" stroke-width="0" style="-webkit-tap-highlight-color: rgba(0, 0, 0, 0);"/><rect x="66" y="10" width="6" height="14" r="0" rx="0" ry="0" fill="#ffff00" stroke="#000" stroke-width="0" style="-webkit-tap-highlight-color: rgba(0, 0, 0, 0);"/><rect x="74" y="2" width="22" height="6" r="0" rx="0" ry="0" fill="#aa00ff" stroke="#000" stroke-width="0" style="-webkit-tap-highlight-color: rgba(0, 0, 0, 0);"/><rect x="74" y="18" width="22" height="6" r="0" rx="0" ry="0" fill="#aa00ff" stroke="#000" stroke-width="0" style="-webkit-tap-highlight-color: rgba(0, 0, 0, 0);"/><rect x="74" y="2" width="6" height="22" r="0" rx="0" ry="0" fill="#aa00ff" stroke="#000" stroke-width="0" style="-webkit-tap-highlight-color: rgba(0, 0, 0, 0);"/><rect x="90" y="2" width="6" height="22" r="0" rx="0" ry="0" fill="#aa00ff" stroke="#000" stroke-width="0" style="-webkit-tap-highlight-color: rgba(0, 0, 0, 0);"/><rect x="82" y="10" width="6" height="6" r="0" rx="0" ry="0" fill="#aa00ff" stroke="#000" stroke-width="0" style="-webkit-tap-highlight-color: rgba(0, 0, 0, 0);"/><rect x="98" y="2" width="6" height="22" r="0" rx="0" ry="0" fill="#00ff55" stroke="#000" stroke-width="0" style="-webkit-tap-highlight-color: rgba(0, 0, 0, 0);"/><rect x="98" y="2" width="22" height="6" r="0" rx="0" ry="0" fill="#00ff55" stroke="#000" stroke-width="0" style="-webkit-tap-highlight-color: rgba(0, 0, 0, 0);"/><rect x="106" y="2" width="6" height="14" r="0" rx="0" ry="0" fill="#00ff55" stroke="#000" stroke-width="0" style="-webkit-tap-highlight-color: rgba(0, 0, 0, 0);"/><rect x="114" y="2" width="6" height="22" r="0" rx="0" ry="0" fill="#00ff55" stroke="#000" stroke-width="0" style="-webkit-tap-highlight-color: rgba(0, 0, 0, 0);"/><rect x="106" y="18" width="6" height="6" r="0" rx="0" ry="0" fill="#00ff55" stroke="#000" stroke-width="0" style="-webkit-tap-highlight-color: rgba(0, 0, 0, 0);"/><rect x="122" y="2" width="22" height="6" r="0" rx="0" ry="0" fill="#ff0000" stroke="#000" stroke-width="0" style="-webkit-tap-highlight-color: rgba(0, 0, 0, 0);"/><rect x="122" y="2" width="6" height="22" r="0" rx="0" ry="0" fill="#ff0000" stroke="#000" stroke-width="0" style="-webkit-tap-highlight-color: rgba(0, 0, 0, 0);"/><rect x="138" y="2" width="6" height="22" r="0" rx="0" ry="0" fill="#ff0000" stroke="#000" stroke-width="0" style="-webkit-tap-highlight-color: rgba(0, 0, 0, 0);"/><rect x="122" y="10" width="22" height="6" r="0" rx="0" ry="0" fill="#ff0000" stroke="#000" stroke-width="0" style="-webkit-tap-highlight-color: rgba(0, 0, 0, 0);"/><rect x="130" y="18" width="6" height="6" r="0" rx="0" ry="0" fill="#ff0000" stroke="#000" stroke-width="0" style="-webkit-tap-highlight-color: rgba(0, 0, 0, 0);"/><rect x="146" y="2" width="22" height="6" r="0" rx="0" ry="0" fill="#0055ff" stroke="#000" stroke-width="0" style="-webkit-tap-highlight-color: rgba(0, 0, 0, 0);"/><rect x="154" y="2" width="6" height="22" r="0" rx="0" ry="0" fill="#0055ff" stroke="#000" stroke-width="0" style="-webkit-tap-highlight-color: rgba(0, 0, 0, 0);"/><rect x="146" y="10" width="6" height="14" r="0" rx="0" ry="0" fill="#0055ff" stroke="#000" stroke-width="0" style="-webkit-tap-highlight-color: rgba(0, 0, 0, 0);"/><rect x="162" y="10" width="6" height="14" r="0" rx="0" ry="0" fill="#0055ff" stroke="#000" stroke-width="0" style="-webkit-tap-highlight-color: rgba(0, 0, 0, 0);"/><rect x="170" y="2" width="22" height="6" r="0" rx="0" ry="0" fill="#aaff00" stroke="#000" stroke-width="0" style="-webkit-tap-highlight-color: rgba(0, 0, 0, 0);"/><rect x="170" y="18" width="22" height="6" r="0" rx="0" ry="0" fill="#aaff00" stroke="#000" stroke-width="0" style="-webkit-tap-highlight-color: rgba(0, 0, 0, 0);"/><rect x="170" y="2" width="6" height="22" r="0" rx="0" ry="0" fill="#aaff00" stroke="#000" stroke-width="0" style="-webkit-tap-highlight-color: rgba(0, 0, 0, 0);"/><rect x="186" y="2" width="6" height="22" r="0" rx="0" ry="0" fill="#aaff00" stroke="#000" stroke-width="0" style="-webkit-tap-highlight-color: rgba(0, 0, 0, 0);"/><rect x="178" y="10" width="6" height="6" r="0" rx="0" ry="0" fill="#aaff00" stroke="#000" stroke-width="0" style="-webkit-tap-highlight-color: rgba(0, 0, 0, 0);"/><rect x="194" y="2" width="6" height="22" r="0" rx="0" ry="0" fill="#ff00ff" stroke="#000" stroke-width="0" style="-webkit-tap-highlight-color: rgba(0, 0, 0, 0);"/><rect x="210" y="2" width="6" height="22" r="0" rx="0" ry="0" fill="#ff00ff" stroke="#000" stroke-width="0" style="-webkit-tap-highlight-color: rgba(0, 0, 0, 0);"/><rect x="194" y="2" width="14" height="6" r="0" rx="0" ry="0" fill="#ff00ff" stroke="#000" stroke-width="0" style="-webkit-tap-highlight-color: rgba(0, 0, 0, 0);"/><rect x="202" y="2" width="6" height="22" r="0" rx="0" ry="0" fill="#ff00ff" stroke="#000" stroke-width="0" style="-webkit-tap-highlight-color: rgba(0, 0, 0, 0);"/><rect x="202" y="18" width="14" height="6" r="0" rx="0" ry="0" fill="#ff00ff" stroke="#000" stroke-width="0" style="-webkit-tap-highlight-color: rgba(0, 0, 0, 0);"/></svg>